<mxfile host="app.diagrams.net" agent="Mozilla/5.0 (Windows NT 10.0; Win64; x64) AppleWebKit/537.36 (KHTML, like Gecko) Chrome/135.0.0.0 Safari/537.36" version="26.2.10">
  <diagram name="Page-1" id="0Z1c4rZ1ilnqlhmBuqqS">
    <mxGraphModel dx="1044" dy="535" grid="1" gridSize="10" guides="0" tooltips="1" connect="1" arrows="1" fold="1" page="1" pageScale="1" pageWidth="827" pageHeight="1169" background="#FFF2CC" math="0" shadow="0">
      <root>
        <mxCell id="0" />
        <mxCell id="1" parent="0" />
        <mxCell id="VVKq5X5vDXphcIov5G97-43" value="&lt;font style=&quot;font-size: 14px;&quot;&gt;&lt;i&gt;Data Source&lt;/i&gt;&lt;/font&gt;" style="swimlane;whiteSpace=wrap;html=1;fillColor=#ffe6cc;strokeColor=#d79b00;swimlaneFillColor=none;swimlaneLine=1;" parent="1" vertex="1">
          <mxGeometry x="20" y="160" width="130" height="400" as="geometry" />
        </mxCell>
        <mxCell id="VVKq5X5vDXphcIov5G97-44" value="" style="image;aspect=fixed;html=1;points=[];align=center;fontSize=12;image=img/lib/azure2/general/File.svg;flipV=0;flipH=1;" parent="VVKq5X5vDXphcIov5G97-43" vertex="1">
          <mxGeometry x="17" y="80" width="91" height="112.15" as="geometry" />
        </mxCell>
        <mxCell id="VVKq5X5vDXphcIov5G97-45" value="&lt;font style=&quot;font-size: 14px;&quot;&gt;&lt;i&gt;Csv File&lt;/i&gt;&lt;/font&gt;" style="text;html=1;align=center;verticalAlign=middle;whiteSpace=wrap;rounded=0;" parent="VVKq5X5vDXphcIov5G97-43" vertex="1">
          <mxGeometry x="30" y="230" width="60" height="30" as="geometry" />
        </mxCell>
        <mxCell id="VVKq5X5vDXphcIov5G97-46" value="" style="shape=cylinder3;whiteSpace=wrap;html=1;boundedLbl=1;backgroundOutline=1;size=15;fillColor=#f5f5f5;strokeColor=#666666;gradientColor=#b3b3b3;" parent="1" vertex="1">
          <mxGeometry x="198" y="160" width="160" height="400" as="geometry" />
        </mxCell>
        <mxCell id="VVKq5X5vDXphcIov5G97-47" value="" style="shape=cylinder3;whiteSpace=wrap;html=1;boundedLbl=1;backgroundOutline=1;size=15;fillColor=#dae8fc;gradientColor=#7ea6e0;strokeColor=#6c8ebf;fontStyle=2" parent="1" vertex="1">
          <mxGeometry x="390" y="160" width="160" height="400" as="geometry" />
        </mxCell>
        <mxCell id="VVKq5X5vDXphcIov5G97-48" value="" style="shape=cylinder3;whiteSpace=wrap;html=1;boundedLbl=1;backgroundOutline=1;size=15;labelBackgroundColor=default;fillColor=#ffcd28;gradientColor=#ffa500;strokeColor=#d79b00;" parent="1" vertex="1">
          <mxGeometry x="583" y="160" width="160" height="400" as="geometry" />
        </mxCell>
        <mxCell id="VVKq5X5vDXphcIov5G97-49" value="&lt;i&gt;End User&lt;/i&gt;" style="swimlane;whiteSpace=wrap;html=1;fillColor=#ffe6cc;strokeColor=#d79b00;fontSize=14;" parent="1" vertex="1">
          <mxGeometry x="790" y="160" width="130" height="400" as="geometry" />
        </mxCell>
        <mxCell id="VVKq5X5vDXphcIov5G97-50" value="&lt;i&gt;&lt;font style=&quot;font-size: 14px;&quot;&gt;Data Analyst&lt;/font&gt;&lt;/i&gt;" style="text;html=1;align=center;verticalAlign=middle;whiteSpace=wrap;rounded=0;" parent="VVKq5X5vDXphcIov5G97-49" vertex="1">
          <mxGeometry x="38" y="230" width="60" height="30" as="geometry" />
        </mxCell>
        <mxCell id="VVKq5X5vDXphcIov5G97-51" value="&lt;font style=&quot;font-size: 14px;&quot;&gt;&lt;i&gt;Machine Learning&lt;/i&gt;&lt;/font&gt;" style="text;html=1;align=center;verticalAlign=middle;whiteSpace=wrap;rounded=0;" parent="VVKq5X5vDXphcIov5G97-49" vertex="1">
          <mxGeometry x="34" y="50" width="65" height="30" as="geometry" />
        </mxCell>
        <mxCell id="VVKq5X5vDXphcIov5G97-52" value="&lt;font style=&quot;font-size: 14px;&quot;&gt;&lt;i&gt;PowerBi&lt;/i&gt;&lt;/font&gt;&lt;div&gt;&lt;font style=&quot;font-size: 14px;&quot;&gt;&lt;i&gt;Tableau&lt;/i&gt;&lt;/font&gt;&lt;/div&gt;" style="text;html=1;align=center;verticalAlign=middle;whiteSpace=wrap;rounded=0;" parent="VVKq5X5vDXphcIov5G97-49" vertex="1">
          <mxGeometry x="35" y="140" width="60" height="30" as="geometry" />
        </mxCell>
        <mxCell id="VVKq5X5vDXphcIov5G97-53" value="" style="shape=image;html=1;verticalAlign=top;verticalLabelPosition=bottom;labelBackgroundColor=#ffffff;imageAspect=0;aspect=fixed;image=https://cdn4.iconfinder.com/data/icons/success-filloutline/64/chart-analysis-analytics-data_analytics-pie_1-128.png;" parent="VVKq5X5vDXphcIov5G97-49" vertex="1">
          <mxGeometry x="50" y="270" width="40" height="40" as="geometry" />
        </mxCell>
        <mxCell id="VVKq5X5vDXphcIov5G97-54" value="" style="outlineConnect=0;gradientColor=#b3b3b3;fillColor=light-dark(#080808, #ededed);strokeColor=#666666;dashed=0;verticalLabelPosition=bottom;verticalAlign=top;align=center;html=1;fontSize=12;fontStyle=0;aspect=fixed;pointerEvents=1;shape=mxgraph.aws4.iot_analytics_data_store;" parent="1" vertex="1">
          <mxGeometry x="251" y="200" width="54" height="78" as="geometry" />
        </mxCell>
        <mxCell id="VVKq5X5vDXphcIov5G97-55" value="" style="outlineConnect=0;gradientColor=#ffa500;fillColor=light-dark(#080808, #ededed);strokeColor=#d79b00;dashed=0;verticalLabelPosition=bottom;verticalAlign=top;align=center;html=1;fontSize=12;fontStyle=0;pointerEvents=1;shape=mxgraph.aws4.iot_analytics_data_store;aspect=fixed;" parent="1" vertex="1">
          <mxGeometry x="633" y="200" width="54" height="78" as="geometry" />
        </mxCell>
        <mxCell id="VVKq5X5vDXphcIov5G97-56" value="" style="outlineConnect=0;fillColor=light-dark(#080808, #ededed);strokeColor=#36393d;dashed=0;verticalLabelPosition=bottom;verticalAlign=top;align=center;html=1;fontSize=12;fontStyle=0;aspect=fixed;pointerEvents=1;shape=mxgraph.aws4.iot_analytics_data_store;" parent="1" vertex="1">
          <mxGeometry x="443" y="200" width="54" height="78" as="geometry" />
        </mxCell>
        <mxCell id="VVKq5X5vDXphcIov5G97-57" value="&lt;div&gt;&lt;b&gt;&lt;i&gt;Extract&lt;/i&gt;&lt;/b&gt;&lt;/div&gt;&lt;b&gt;&lt;i&gt;Raw Data&lt;/i&gt;&lt;/b&gt;" style="text;html=1;align=center;verticalAlign=middle;whiteSpace=wrap;rounded=0;" parent="1" vertex="1">
          <mxGeometry x="244" y="280" width="68" height="40" as="geometry" />
        </mxCell>
        <mxCell id="VVKq5X5vDXphcIov5G97-58" value="&lt;b&gt;&lt;i&gt;load Data&lt;/i&gt;&lt;/b&gt;" style="text;html=1;align=center;verticalAlign=middle;whiteSpace=wrap;rounded=0;" parent="1" vertex="1">
          <mxGeometry x="626" y="278" width="68" height="40" as="geometry" />
        </mxCell>
        <mxCell id="VVKq5X5vDXphcIov5G97-59" value="&lt;div&gt;&lt;b&gt;&lt;i&gt;Transform&lt;/i&gt;&lt;/b&gt;&lt;/div&gt;&lt;b&gt;&lt;i&gt;Raw Data&lt;/i&gt;&lt;/b&gt;" style="text;html=1;align=center;verticalAlign=middle;whiteSpace=wrap;rounded=0;" parent="1" vertex="1">
          <mxGeometry x="436" y="280" width="68" height="40" as="geometry" />
        </mxCell>
        <mxCell id="VVKq5X5vDXphcIov5G97-60" value="&lt;font style=&quot;font-size: 14px;&quot;&gt;&lt;i&gt;&lt;b&gt;bronze layer&lt;/b&gt;&lt;/i&gt;&lt;/font&gt;" style="ellipse;whiteSpace=wrap;html=1;strokeColor=#666666;fillColor=#f5f5f5;gradientColor=#b3b3b3;" parent="1" vertex="1">
          <mxGeometry x="230.5" y="160" width="95" height="30" as="geometry" />
        </mxCell>
        <mxCell id="VVKq5X5vDXphcIov5G97-61" value="&lt;font style=&quot;font-size: 14px;&quot;&gt;&lt;b&gt;&lt;i&gt;Silver layer&lt;/i&gt;&lt;/b&gt;&lt;/font&gt;" style="ellipse;whiteSpace=wrap;html=1;fillColor=#cce5ff;strokeColor=#36393d;" parent="1" vertex="1">
          <mxGeometry x="422.5" y="160" width="95" height="30" as="geometry" />
        </mxCell>
        <mxCell id="VVKq5X5vDXphcIov5G97-62" value="&lt;font style=&quot;font-size: 14px;&quot;&gt;&lt;i&gt;&lt;b&gt;gold layer&lt;/b&gt;&lt;/i&gt;&lt;/font&gt;" style="ellipse;whiteSpace=wrap;html=1;fillColor=#ffcd28;strokeColor=#d79b00;gradientColor=#ffa500;" parent="1" vertex="1">
          <mxGeometry x="612.5" y="160" width="95" height="30" as="geometry" />
        </mxCell>
        <mxCell id="VVKq5X5vDXphcIov5G97-63" value="" style="swimlane;fontStyle=0;childLayout=stackLayout;horizontal=1;startSize=0;horizontalStack=0;resizeParent=1;resizeParentMax=0;resizeLast=0;collapsible=0;marginBottom=0;whiteSpace=wrap;html=1;strokeColor=#666666;fillColor=#f5f5f5;gradientColor=#b3b3b3;" parent="1" vertex="1">
          <mxGeometry x="220" y="330" width="120" height="90" as="geometry" />
        </mxCell>
        <mxCell id="VVKq5X5vDXphcIov5G97-64" value="&lt;span style=&quot;color: rgb(0, 0, 0);&quot;&gt;batch processing&lt;/span&gt;" style="text;strokeColor=#666666;fillColor=#f5f5f5;align=left;verticalAlign=middle;spacingLeft=10;spacingRight=10;overflow=hidden;points=[[0,0.5],[1,0.5]];portConstraint=eastwest;rotatable=0;whiteSpace=wrap;html=1;shape=mxgraph.bootstrap.topButton;rSize=5;gradientColor=#b3b3b3;fontStyle=2" parent="VVKq5X5vDXphcIov5G97-63" vertex="1">
          <mxGeometry width="120" height="30" as="geometry" />
        </mxCell>
        <mxCell id="VVKq5X5vDXphcIov5G97-65" value="&lt;span style=&quot;color: rgb(0, 0, 0);&quot;&gt;full load&lt;/span&gt;" style="text;strokeColor=#666666;fillColor=#f5f5f5;align=left;verticalAlign=middle;spacingLeft=10;spacingRight=10;overflow=hidden;points=[[0,0.5],[1,0.5]];portConstraint=eastwest;rotatable=0;whiteSpace=wrap;html=1;rSize=5;gradientColor=#b3b3b3;fontStyle=2" parent="VVKq5X5vDXphcIov5G97-63" vertex="1">
          <mxGeometry y="30" width="120" height="30" as="geometry" />
        </mxCell>
        <mxCell id="VVKq5X5vDXphcIov5G97-66" value="&lt;span style=&quot;color: rgb(0, 0, 0);&quot;&gt;truncate and inert&lt;/span&gt;" style="text;strokeColor=#666666;fillColor=#f5f5f5;align=left;verticalAlign=middle;spacingLeft=10;spacingRight=10;overflow=hidden;points=[[0,0.5],[1,0.5]];portConstraint=eastwest;rotatable=0;whiteSpace=wrap;html=1;shape=mxgraph.bootstrap.bottomButton;rSize=5;gradientColor=#b3b3b3;fontStyle=2" parent="VVKq5X5vDXphcIov5G97-63" vertex="1">
          <mxGeometry y="60" width="120" height="30" as="geometry" />
        </mxCell>
        <mxCell id="VVKq5X5vDXphcIov5G97-67" value="" style="swimlane;fontStyle=0;childLayout=stackLayout;horizontal=1;startSize=0;horizontalStack=0;resizeParent=1;resizeParentMax=0;resizeLast=0;collapsible=0;marginBottom=0;whiteSpace=wrap;html=1;strokeColor=#6c8ebf;fillColor=#dae8fc;gradientColor=#7ea6e0;rounded=0;glass=0;" parent="1" vertex="1">
          <mxGeometry x="410" y="330" width="120" height="90" as="geometry" />
        </mxCell>
        <mxCell id="VVKq5X5vDXphcIov5G97-68" value="&lt;span style=&quot;color: rgb(0, 0, 0);&quot;&gt;batch processing&lt;/span&gt;" style="text;strokeColor=#6c8ebf;fillColor=#dae8fc;align=left;verticalAlign=middle;spacingLeft=10;spacingRight=10;overflow=hidden;points=[[0,0.5],[1,0.5]];portConstraint=eastwest;rotatable=0;whiteSpace=wrap;html=1;shape=mxgraph.bootstrap.topButton;rSize=5;gradientColor=#7ea6e0;fontStyle=2" parent="VVKq5X5vDXphcIov5G97-67" vertex="1">
          <mxGeometry width="120" height="30" as="geometry" />
        </mxCell>
        <mxCell id="VVKq5X5vDXphcIov5G97-69" value="&lt;span style=&quot;color: rgb(0, 0, 0);&quot;&gt;full load&lt;/span&gt;" style="text;strokeColor=#6c8ebf;fillColor=#dae8fc;align=left;verticalAlign=middle;spacingLeft=10;spacingRight=10;overflow=hidden;points=[[0,0.5],[1,0.5]];portConstraint=eastwest;rotatable=0;whiteSpace=wrap;html=1;rSize=5;gradientColor=#7ea6e0;fontStyle=2" parent="VVKq5X5vDXphcIov5G97-67" vertex="1">
          <mxGeometry y="30" width="120" height="30" as="geometry" />
        </mxCell>
        <mxCell id="VVKq5X5vDXphcIov5G97-70" value="&lt;span style=&quot;color: rgb(0, 0, 0);&quot;&gt;truncate and inert&lt;/span&gt;" style="text;strokeColor=#6c8ebf;fillColor=#dae8fc;align=left;verticalAlign=middle;spacingLeft=10;spacingRight=10;overflow=hidden;points=[[0,0.5],[1,0.5]];portConstraint=eastwest;rotatable=0;whiteSpace=wrap;html=1;shape=mxgraph.bootstrap.bottomButton;rSize=5;gradientColor=#7ea6e0;fontStyle=2" parent="VVKq5X5vDXphcIov5G97-67" vertex="1">
          <mxGeometry y="60" width="120" height="30" as="geometry" />
        </mxCell>
        <mxCell id="VVKq5X5vDXphcIov5G97-72" value="Transformation" style="swimlane;fontStyle=2;childLayout=stackLayout;horizontal=1;startSize=26;fillColor=none;horizontalStack=0;resizeParent=1;resizeParentMax=0;resizeLast=0;collapsible=1;marginBottom=0;html=1;align=left;rounded=1;" parent="1" vertex="1">
          <mxGeometry x="405" y="440" width="130" height="104" as="geometry" />
        </mxCell>
        <mxCell id="VVKq5X5vDXphcIov5G97-73" value="Data Cleansing" style="text;strokeColor=none;fillColor=none;align=left;verticalAlign=top;spacingLeft=26;spacingRight=3;overflow=hidden;rotatable=0;points=[[0,0.5],[1,0.5]];portConstraint=eastwest;whiteSpace=wrap;html=1;fontSize=12;spacing=2;spacingTop=0;fontStyle=2" parent="VVKq5X5vDXphcIov5G97-72" vertex="1">
          <mxGeometry y="26" width="130" height="26" as="geometry" />
        </mxCell>
        <mxCell id="VVKq5X5vDXphcIov5G97-74" value="Data&amp;nbsp;Normalization&lt;span style=&quot;white-space: pre;&quot;&gt;&#x9;&lt;/span&gt;" style="text;strokeColor=none;fillColor=none;align=left;verticalAlign=top;spacingLeft=26;spacingRight=3;overflow=hidden;rotatable=0;points=[[0,0.5],[1,0.5]];portConstraint=eastwest;whiteSpace=wrap;html=1;fontSize=12;spacing=2;spacingTop=0;fontStyle=2" parent="VVKq5X5vDXphcIov5G97-72" vertex="1">
          <mxGeometry y="52" width="130" height="26" as="geometry" />
        </mxCell>
        <mxCell id="VVKq5X5vDXphcIov5G97-75" value="Data&amp;nbsp; Enrichment" style="text;strokeColor=none;fillColor=none;align=left;verticalAlign=top;spacingLeft=26;spacingRight=3;overflow=hidden;rotatable=0;points=[[0,0.5],[1,0.5]];portConstraint=eastwest;whiteSpace=wrap;html=1;fontSize=12;spacing=2;spacingTop=0;fontStyle=2" parent="VVKq5X5vDXphcIov5G97-72" vertex="1">
          <mxGeometry y="78" width="130" height="26" as="geometry" />
        </mxCell>
        <mxCell id="VVKq5X5vDXphcIov5G97-84" value="" style="endArrow=none;html=1;rounded=0;entryX=0.938;entryY=0.375;entryDx=0;entryDy=0;entryPerimeter=0;" parent="1" edge="1">
          <mxGeometry width="50" height="50" relative="1" as="geometry">
            <mxPoint x="207.98" y="320" as="sourcePoint" />
            <mxPoint x="348.0199999999999" y="320" as="targetPoint" />
          </mxGeometry>
        </mxCell>
        <mxCell id="VVKq5X5vDXphcIov5G97-87" value="" style="endArrow=none;html=1;rounded=0;entryX=0.938;entryY=0.375;entryDx=0;entryDy=0;entryPerimeter=0;" parent="1" edge="1">
          <mxGeometry width="50" height="50" relative="1" as="geometry">
            <mxPoint x="589.98" y="319" as="sourcePoint" />
            <mxPoint x="730.02" y="319" as="targetPoint" />
          </mxGeometry>
        </mxCell>
        <mxCell id="VVKq5X5vDXphcIov5G97-86" value="" style="endArrow=none;html=1;rounded=0;entryX=0.938;entryY=0.375;entryDx=0;entryDy=0;entryPerimeter=0;" parent="1" edge="1">
          <mxGeometry width="50" height="50" relative="1" as="geometry">
            <mxPoint x="399.97999999999996" y="319" as="sourcePoint" />
            <mxPoint x="540.02" y="319" as="targetPoint" />
          </mxGeometry>
        </mxCell>
        <mxCell id="VVKq5X5vDXphcIov5G97-77" value="&lt;span style=&quot;color: rgb(0, 0, 0);&quot;&gt;Data Aggregation&lt;/span&gt;" style="text;strokeColor=#d79b00;fillColor=#ffcd28;align=left;verticalAlign=middle;spacingLeft=10;spacingRight=10;overflow=hidden;points=[[0,0.5],[1,0.5]];portConstraint=eastwest;rotatable=0;whiteSpace=wrap;html=1;shape=mxgraph.bootstrap.topButton;rSize=5;gradientColor=#ffa500;fontStyle=2" parent="1" vertex="1">
          <mxGeometry x="600" y="330" width="120" height="30" as="geometry" />
        </mxCell>
        <mxCell id="VVKq5X5vDXphcIov5G97-92" value="" style="shape=singleArrow;whiteSpace=wrap;html=1;fillColor=#60a917;fontColor=#ffffff;strokeColor=#2D7600;" parent="1" vertex="1">
          <mxGeometry x="340" y="209" width="85" height="60" as="geometry" />
        </mxCell>
        <mxCell id="VVKq5X5vDXphcIov5G97-93" value="" style="endArrow=none;html=1;rounded=0;entryX=0.938;entryY=0.375;entryDx=0;entryDy=0;entryPerimeter=0;" parent="1" edge="1">
          <mxGeometry width="50" height="50" relative="1" as="geometry">
            <mxPoint x="399.98" y="430" as="sourcePoint" />
            <mxPoint x="540.02" y="430" as="targetPoint" />
          </mxGeometry>
        </mxCell>
        <mxCell id="VVKq5X5vDXphcIov5G97-94" value="" style="shape=singleArrow;whiteSpace=wrap;html=1;fillColor=#60a917;fontColor=#ffffff;strokeColor=#2D7600;" parent="1" vertex="1">
          <mxGeometry x="520" y="209" width="85" height="60" as="geometry" />
        </mxCell>
        <mxCell id="VVKq5X5vDXphcIov5G97-95" value="" style="shape=singleArrow;whiteSpace=wrap;html=1;fillColor=#60a917;strokeColor=#2D7600;fontColor=#ffffff;" parent="1" vertex="1">
          <mxGeometry x="145.5" y="209" width="85" height="60" as="geometry" />
        </mxCell>
        <mxCell id="VVKq5X5vDXphcIov5G97-97" value="" style="shape=singleArrow;whiteSpace=wrap;html=1;fillColor=#60a917;fontColor=#ffffff;strokeColor=#2D7600;" parent="1" vertex="1">
          <mxGeometry x="720" y="209" width="85" height="60" as="geometry" />
        </mxCell>
        <mxCell id="VVKq5X5vDXphcIov5G97-111" value="&lt;span style=&quot;font-weight: normal;&quot;&gt;&lt;i style=&quot;&quot;&gt;Project Architecture&lt;/i&gt;&lt;/span&gt;" style="text;html=1;fontSize=24;fontStyle=1;verticalAlign=middle;align=center;strokeColor=#d79b00;rounded=1;shadow=0;glass=0;fillColor=#ffe6cc;" parent="1" vertex="1">
          <mxGeometry x="290" y="30" width="340" height="40" as="geometry" />
        </mxCell>
        <mxCell id="9UH_G2-cxIOJrsFygHfb-1" value="" style="swimlane;childLayout=stackLayout;horizontal=1;fillColor=none;horizontalStack=1;resizeParent=1;resizeParentMax=0;resizeLast=0;collapsible=0;strokeColor=none;stackBorder=10;stackSpacing=-12;resizable=1;align=center;points=[];whiteSpace=wrap;html=1;" vertex="1" parent="1">
          <mxGeometry x="190" y="80" width="180" height="70" as="geometry" />
        </mxCell>
        <mxCell id="9UH_G2-cxIOJrsFygHfb-2" value="Data Ingestion" style="shape=step;perimeter=stepPerimeter;fixedSize=1;points=[];whiteSpace=wrap;html=1;" vertex="1" parent="9UH_G2-cxIOJrsFygHfb-1">
          <mxGeometry x="10" y="33" width="160" height="27" as="geometry" />
        </mxCell>
        <mxCell id="9UH_G2-cxIOJrsFygHfb-4" value="Data Loading" style="shape=step;perimeter=stepPerimeter;fixedSize=1;points=[];whiteSpace=wrap;html=1;" vertex="1" parent="1">
          <mxGeometry x="580" y="115" width="160" height="27" as="geometry" />
        </mxCell>
        <mxCell id="9UH_G2-cxIOJrsFygHfb-3" value="Data Transformation" style="shape=step;perimeter=stepPerimeter;fixedSize=1;points=[];whiteSpace=wrap;html=1;" vertex="1" parent="1">
          <mxGeometry x="390" y="115" width="160" height="27" as="geometry" />
        </mxCell>
      </root>
    </mxGraphModel>
  </diagram>
</mxfile>
